<svg xmlns="http://www.w3.org/2000/svg" width="278" height="113" viewBox="0 0 278 113"><g><g><path fill="#fff" d="M65.975 10.834c15.888 3.2 37.652 8.912 55.237 7.579 15.722-1.192 38.645-5.558 44.272-7.58 7.034-2.526 10.344-4.63 20.481-9.473 10.137-4.842 24.411 4.21 29.17 12 6.34 10.38 27.101 6.316 38.893 10.316 11.792 4 17.378 15.369 22.136 23.369 4.758 8 0 37.685-11.172 51.37-11.171 13.684-44.892 2.526-59.167 2.526-14.275 0-20.688 4-26.067 7.158-5.379 3.157-45.099 4-60.822-7.158-15.723-11.159-22.964-6.527-37.238-6.527-14.275 0-37.86 21.053-63.305 17.685C-7.053 108.73 5.773 74.414.394 50.203s45.72-43.37 65.58-39.37z"/></g></g></svg>