<svg xmlns="http://www.w3.org/2000/svg" width="398" height="162" viewBox="0 0 398 162"><g><g><path fill="#fff" d="M94.453 15.89c22.747 4.582 53.905 12.76 79.08 10.85 22.51-1.706 55.326-7.956 63.382-10.85 10.071-3.617 14.809-6.63 29.322-13.563 14.513-6.932 34.949 6.028 41.762 17.18 9.077 14.86 38.799 9.042 55.681 14.77 16.882 5.726 24.879 22.002 31.691 33.455 6.813 11.454 0 53.952-15.993 73.543-15.994 19.592-64.271 3.617-84.708 3.617-20.436 0-29.617 5.727-37.318 10.248-7.701 4.521-64.567 5.727-87.077-10.248-22.509-15.974-32.876-9.344-53.312-9.344-20.437 0-54.2 30.141-90.631 25.319-36.43-4.823-18.067-53.952-25.768-88.614-7.7-34.662 65.456-62.09 93.89-56.363z"/></g></g></svg>